<svg xmlns="http://www.w3.org/2000/svg" version="1.1" xmlns:xlink="http://www.w3.org/1999/xlink" xmlns:svgjs="http://svgjs.com/svgjs" width="1440" height="560" preserveAspectRatio="none" viewBox="0 0 1440 560"><g mask="url(&quot;#SvgjsMask1005&quot;)" fill="none"><rect width="1440" height="560" x="0" y="0" fill="url(#SvgjsLinearGradient1006)"></rect><path d="M 0,26 C 57.6,71.8 172.8,243 288,255 C 403.2,267 460.8,102.4 576,86 C 691.2,69.6 748.8,176.4 864,173 C 979.2,169.6 1036.8,54.8 1152,69 C 1267.2,83.2 1382.4,209 1440,244L1440 560L0 560z" fill="#184a7e"></path><path d="M 0,521 C 96,480.8 288,329.6 480,320 C 672,310.4 768,475.8 960,473 C 1152,470.2 1344,339.4 1440,306L1440 560L0 560z" fill="#2264ab"></path></g><defs><mask id="SvgjsMask1005"><rect width="1440" height="560" fill="#ffffff"></rect></mask><linearGradient x1="15.28%" y1="-39.29%" x2="84.72%" y2="139.29%" gradientUnits="userSpaceOnUse" id="SvgjsLinearGradient1006"><stop stop-color="#0e2a47" offset="0"></stop><stop stop-color="#00459e" offset="1"></stop></linearGradient></defs></svg>